<?xml version="1.0" standalone="no"?>
<!DOCTYPE svg PUBLIC "-//W3C//DTD SVG 20010904//EN"
 "http://www.w3.org/TR/2001/REC-SVG-20010904/DTD/svg10.dtd">
<svg version="1.0" xmlns="http://www.w3.org/2000/svg"
 width="800.000000pt" height="800.000000pt" viewBox="0 0 800.000000 800.000000"
 preserveAspectRatio="xMidYMid meet">
<metadata>
Created by potrace 1.14, written by Peter Selinger 2001-2017
</metadata>
<g transform="translate(0.000000,800.000000) scale(0.100000,-0.100000)"
fill="#000000" stroke="none">
<path d="M4096 7213 c-6 -14 -5 -15 5 -6 7 7 10 15 7 18 -3 3 -9 -2 -12 -12z"/>
<path d="M3805 7213 c3 -7 1 -13 -5 -13 -6 0 -8 -5 -4 -12 4 -7 3 -8 -5 -4 -6
4 -9 11 -7 15 3 4 -1 8 -9 8 -8 0 -12 -4 -9 -9 8 -13 -10 -10 -25 5 -11 10
-13 10 -7 0 11 -21 -48 -20 -74 0 -13 10 -13 10 -2 -4 10 -14 10 -18 -3 -23
-9 -3 -13 -2 -10 4 3 6 2 10 -4 10 -5 0 -12 -4 -16 -10 -3 -6 -15 -6 -30 0
-20 8 -27 5 -41 -13 -9 -12 -14 -15 -12 -7 4 11 -2 15 -19 15 -19 0 -23 -4
-19 -20 5 -18 4 -18 -8 -3 -7 9 -21 15 -32 13 -10 -2 -22 -4 -26 -4 -5 -1 -8
-9 -8 -18 0 -11 -3 -14 -8 -7 -5 7 -18 7 -45 -1 -21 -6 -35 -14 -31 -18 4 -4
2 -7 -3 -7 -6 0 -13 6 -16 13 -3 9 -7 9 -20 -2 -9 -7 -14 -18 -10 -24 3 -6 1
-7 -5 -3 -6 4 -10 12 -8 19 1 7 1 9 -1 4 -3 -4 -10 -4 -15 -1 -6 4 -8 2 -4 -4
3 -6 2 -13 -4 -17 -5 -3 -10 -2 -10 2 0 5 -9 9 -20 9 -10 0 -17 -2 -15 -5 6
-5 -27 -30 -40 -31 -5 0 -3 5 5 11 11 8 9 9 -10 3 -14 -3 -29 -13 -33 -20 -4
-8 -13 -14 -20 -14 -7 0 -6 4 3 10 12 7 10 9 -7 7 -12 0 -19 -5 -17 -9 3 -4 0
-8 -7 -8 -7 0 -22 -8 -33 -17 -14 -12 -17 -13 -9 -3 10 13 9 16 -6 16 -10 0
-18 -7 -17 -15 1 -9 -5 -16 -11 -17 -7 -1 -18 -2 -24 -3 -5 0 -7 -6 -3 -13 4
-7 3 -8 -4 -4 -6 4 -9 14 -5 24 3 10 -1 8 -12 -6 -9 -13 -23 -21 -31 -18 -9 3
-14 -1 -14 -12 0 -13 -2 -14 -9 -3 -7 11 -13 11 -32 0 -13 -7 -30 -19 -37 -28
-11 -13 -12 -13 -6 -1 5 12 4 12 -6 3 -7 -6 -19 -9 -27 -6 -9 4 -16 -3 -20
-17 -4 -16 -8 -18 -14 -8 -7 11 -9 11 -9 -1 0 -8 -6 -11 -16 -7 -10 4 -13 2
-8 -6 5 -8 2 -9 -9 -5 -13 5 -17 1 -17 -16 0 -12 -4 -17 -8 -11 -4 5 -17 10
-29 10 -16 0 -19 -4 -12 -12 8 -9 2 -12 -24 -10 -22 2 -34 -1 -34 -10 0 -7 5
-10 11 -7 6 3 5 0 -2 -8 -11 -12 -14 -12 -23 1 -8 12 -10 10 -5 -9 4 -18 2
-21 -7 -12 -14 14 -30 15 -22 1 3 -5 0 -10 -7 -10 -7 0 -19 -9 -26 -21 -7 -12
-16 -18 -19 -15 -4 3 -13 0 -22 -7 -14 -10 -14 -10 -3 5 12 15 11 16 -17 5
-17 -6 -31 -15 -31 -20 0 -4 5 -5 12 -1 7 4 8 3 4 -4 -4 -6 -13 -9 -21 -6 -8
3 -20 2 -27 -3 -17 -11 -68 -12 -68 -1 0 5 -5 6 -10 3 -6 -4 -8 -10 -6 -14 3
-4 -1 -8 -8 -8 -8 0 -12 7 -9 16 3 12 2 12 -7 -2 -6 -9 -8 -22 -4 -28 3 -6 -5
-3 -20 6 -22 14 -26 15 -26 3 0 -10 -10 -14 -30 -13 -16 1 -27 -1 -25 -5 2 -4
-3 -16 -11 -26 -9 -10 -12 -12 -8 -4 7 12 5 13 -8 3 -8 -7 -19 -9 -24 -5 -4 4
-2 -1 5 -11 12 -15 12 -17 -4 -11 -14 6 -16 4 -10 -6 6 -10 4 -12 -8 -7 -12 4
-15 1 -12 -14 3 -15 0 -19 -11 -15 -12 5 -12 2 -3 -15 10 -19 9 -20 -13 -8
-21 11 -22 11 -9 -4 10 -13 10 -17 1 -17 -10 0 -10 -3 0 -15 11 -13 10 -14 -5
-9 -12 5 -16 4 -12 -3 4 -6 1 -14 -5 -16 -10 -4 -10 -6 0 -6 6 -1 12 -5 12
-10 0 -6 -9 -8 -19 -6 -14 2 -18 -1 -14 -11 3 -7 10 -11 17 -8 6 3 3 -1 -6 -9
-10 -8 -14 -18 -10 -22 4 -5 1 -5 -6 -1 -9 5 -17 -2 -25 -23 -7 -18 -17 -29
-24 -27 -17 7 -27 -11 -11 -18 7 -4 3 -4 -10 -2 -12 2 -20 0 -17 -4 8 -13 -6
-41 -19 -37 -10 3 -36 -16 -36 -27 0 -3 8 -3 18 1 9 3 5 -3 -10 -15 -14 -12
-33 -22 -42 -22 -9 0 -16 -5 -16 -11 0 -5 6 -7 13 -3 8 5 7 2 -2 -10 -11 -13
-16 -14 -23 -4 -7 9 -8 4 -5 -14 4 -24 2 -26 -15 -17 -18 10 -18 8 -8 -11 10
-20 10 -21 -8 -11 -23 12 -36 3 -21 -15 10 -13 6 -18 -36 -39 -11 -6 -20 -17
-21 -25 -3 -38 -5 -42 -20 -36 -14 5 -15 4 -4 -9 11 -13 10 -14 -4 -9 -12 5
-15 2 -10 -10 5 -12 0 -16 -17 -16 -13 0 -19 -4 -14 -8 6 -4 11 -13 13 -21 2
-11 0 -12 -11 -3 -19 16 -30 3 -14 -16 9 -13 9 -14 0 -8 -8 4 -13 2 -13 -4 0
-6 -5 -8 -10 -5 -5 3 -10 -1 -10 -10 0 -10 5 -13 12 -9 7 4 8 3 4 -5 -4 -6
-12 -9 -17 -6 -5 4 -9 -1 -9 -9 0 -9 -5 -16 -11 -16 -5 0 -7 5 -3 12 4 7 3 8
-4 4 -6 -4 -8 -14 -5 -23 4 -10 2 -14 -4 -10 -6 4 -9 -3 -7 -19 1 -16 -5 -29
-17 -37 -10 -6 -19 -20 -19 -30 0 -11 -4 -15 -12 -11 -8 5 -9 0 -5 -15 4 -18
3 -20 -9 -10 -12 10 -13 9 -7 -6 5 -15 3 -17 -12 -12 -15 6 -16 5 -5 -8 12
-15 11 -16 -12 -19 -6 0 -12 -8 -14 -16 -10 -52 -17 -66 -46 -92 -18 -16 -28
-27 -22 -24 8 4 11 -5 10 -23 0 -20 -5 -27 -15 -23 -10 4 -13 0 -9 -16 4 -12
2 -20 -2 -17 -5 3 -11 1 -15 -5 -3 -5 -1 -10 5 -10 6 0 9 -4 5 -10 -3 -5 -13
-6 -23 -3 -14 5 -15 3 -5 -7 10 -11 9 -16 -5 -27 -16 -12 -15 -13 3 -7 l20 6
-20 -17 c-11 -9 -19 -23 -17 -32 2 -8 -1 -12 -7 -9 -5 4 -13 1 -17 -5 -4 -8
-3 -9 4 -5 7 4 12 1 12 -8 0 -9 -6 -16 -12 -16 -9 0 -8 -4 2 -10 13 -8 12 -10
-3 -10 -15 0 -16 -3 -7 -20 8 -16 8 -20 -2 -18 -8 2 -13 -8 -13 -28 0 -21 -4
-30 -12 -27 -7 3 -13 1 -13 -5 0 -6 6 -13 13 -15 7 -3 6 -6 -5 -6 -9 -1 -20
-6 -24 -13 -4 -6 -3 -8 4 -4 13 8 10 -40 -3 -52 -4 -4 -5 -2 -1 5 3 6 2 14 -3
17 -10 7 -9 -13 1 -30 4 -6 1 -20 -7 -30 -8 -10 -15 -32 -15 -47 0 -20 -4 -26
-13 -21 -6 4 -9 4 -5 -1 4 -4 3 -14 -4 -22 -9 -11 -7 -12 8 -6 17 6 17 5 5
-10 -8 -10 -11 -20 -8 -23 3 -4 -1 -13 -9 -21 -12 -12 -12 -18 -2 -31 9 -10 9
-13 1 -9 -6 4 -14 3 -18 -3 -3 -5 2 -10 12 -11 16 0 16 -1 -2 -9 -11 -5 -14
-9 -6 -9 11 -1 10 -6 -3 -26 -9 -13 -16 -28 -16 -32 0 -4 5 -1 10 7 7 12 9 10
7 -7 0 -12 -5 -19 -9 -17 -4 3 -8 -8 -8 -25 0 -16 -6 -32 -12 -34 -10 -4 -10
-6 0 -6 6 -1 12 -10 12 -22 0 -13 -4 -18 -12 -13 -10 6 -10 4 0 -7 14 -16 16
-33 2 -24 -6 3 -10 1 -10 -4 0 -6 5 -11 10 -11 6 0 10 -5 10 -11 0 -5 -4 -8
-9 -5 -12 8 -8 -27 4 -36 6 -5 5 -8 -4 -8 -10 0 -11 -3 -2 -14 9 -11 8 -17 -3
-28 -9 -10 -11 -20 -4 -31 6 -11 5 -17 -2 -17 -6 0 -8 -5 -5 -10 4 -6 11 -7
17 -4 7 4 8 2 4 -4 -4 -7 -15 -12 -24 -12 -13 0 -13 -2 4 -16 10 -8 13 -12 5
-8 -9 4 -12 2 -9 -7 3 -8 1 -23 -5 -34 -9 -18 -8 -18 6 -7 13 11 15 10 10 -10
-3 -13 -11 -29 -17 -37 -8 -11 -8 -13 0 -8 7 4 15 0 18 -9 3 -8 2 -13 -3 -10
-5 3 -11 -1 -15 -9 -3 -8 -1 -17 3 -20 14 -8 20 -45 9 -52 -7 -4 -8 -1 -3 7 5
8 4 11 -3 6 -12 -7 -5 -37 12 -48 5 -3 10 -16 11 -27 1 -14 -2 -18 -9 -12 -8
6 -11 -2 -12 -25 0 -19 3 -34 8 -34 5 0 7 4 3 9 -3 5 -2 12 3 14 11 8 9 -77
-3 -85 -6 -5 -4 -8 5 -8 13 0 13 -1 0 -10 -12 -8 -12 -10 -1 -10 11 0 11 -3 1
-15 -15 -18 0 -20 20 -2 8 6 7 3 -3 -9 -15 -18 -15 -23 -3 -40 13 -17 12 -21
-2 -37 -15 -16 -15 -17 1 -11 20 7 23 -6 5 -24 -9 -9 -8 -12 8 -12 18 -1 18
-1 2 -11 -22 -12 -24 -29 -4 -29 9 0 12 -7 9 -19 -3 -10 0 -22 6 -25 6 -4 11
-13 11 -19 0 -8 -3 -8 -9 1 -7 11 -9 10 -14 -3 -4 -9 -3 -14 2 -11 5 3 17 -6
26 -20 9 -15 12 -23 6 -20 -6 4 -11 0 -11 -8 0 -9 6 -16 13 -16 8 0 7 -4 -3
-10 -13 -8 -12 -10 3 -10 10 0 15 -5 12 -10 -4 -6 -12 -7 -18 -3 -14 8 10 -26
33 -46 13 -12 13 -13 -2 -8 -10 3 -20 1 -24 -5 -4 -7 -3 -8 4 -4 7 4 12 2 12
-4 0 -6 5 -8 10 -5 6 4 9 1 8 -7 -2 -7 -10 -16 -18 -20 -11 -5 -9 -7 7 -7 19
-1 22 -6 19 -37 -2 -34 -1 -35 12 -18 12 16 14 16 9 2 -3 -10 -2 -20 3 -23 7
-4 6 -13 0 -25 -9 -16 -8 -19 7 -14 15 5 15 3 -2 -12 -15 -13 -16 -15 -3 -11
10 3 19 -1 24 -11 12 -27 13 -43 3 -36 -5 3 -7 9 -4 14 3 5 1 11 -4 14 -18 11
-4 -27 14 -40 10 -8 15 -14 11 -14 -5 0 -2 -8 5 -17 8 -9 9 -14 2 -10 -7 5
-10 1 -8 -10 2 -10 4 -22 4 -28 1 -7 4 -7 9 0 4 6 13 11 21 13 12 3 12 0 1
-12 -10 -13 -10 -19 1 -33 9 -11 10 -14 2 -9 -9 5 -11 2 -7 -9 4 -10 13 -14
23 -11 11 4 10 2 -3 -9 -17 -13 -17 -15 -3 -15 11 0 14 -5 10 -17 -4 -9 -2
-14 3 -10 6 3 16 -4 23 -15 11 -18 11 -20 -3 -15 -13 5 -15 3 -7 -12 6 -10 7
-22 3 -26 -4 -5 -1 -5 6 -1 7 4 10 12 7 17 -11 16 0 10 19 -13 15 -17 15 -20
3 -15 -9 3 -19 2 -22 -4 -4 -5 -3 -9 2 -8 22 4 32 -2 27 -16 -4 -8 1 -17 10
-21 12 -5 14 -10 6 -19 -8 -10 -8 -15 1 -21 8 -4 9 -3 5 4 -4 7 -1 12 8 12 9
0 13 -6 10 -13 -3 -8 2 -19 10 -26 8 -7 12 -21 8 -33 -3 -13 -1 -19 5 -15 14
9 24 -17 17 -40 -5 -15 -4 -16 5 -3 8 11 11 12 11 2 0 -7 4 -11 9 -8 5 3 8 -7
7 -23 -1 -19 2 -27 10 -24 6 2 14 -3 18 -12 3 -9 2 -13 -3 -10 -5 3 -12 1 -16
-5 -3 -5 3 -10 14 -10 12 0 20 -3 19 -7 -3 -15 20 -59 38 -73 10 -8 15 -10 11
-3 -4 6 -3 14 2 18 6 3 8 -6 5 -21 -3 -14 -1 -23 4 -20 5 3 16 -11 26 -30 9
-20 12 -33 6 -29 -5 3 -10 1 -10 -4 0 -6 10 -11 23 -11 18 0 19 -2 7 -10 -13
-8 -13 -13 -2 -31 8 -11 9 -19 4 -16 -10 7 -9 -29 1 -39 15 -15 6 -26 -10 -13
-16 12 -17 12 -6 -2 10 -12 10 -18 0 -29 -10 -12 -9 -12 6 0 16 12 18 11 13
-15 -3 -16 -11 -32 -18 -37 -9 -5 -10 -8 -1 -8 11 0 11 -20 -2 -59 -6 -21 -47
-21 -53 0 -3 11 -1 11 7 -1 9 -13 11 -13 11 3 0 18 -15 23 -25 8 -3 -6 -14 -8
-25 -6 -12 2 -18 0 -15 -4 3 -5 -2 -12 -11 -15 -14 -5 -14 -9 -3 -23 12 -15
12 -16 -4 -10 -13 5 -16 3 -10 -6 4 -6 9 -20 10 -30 3 -15 1 -16 -11 -5 -8 7
-11 17 -8 22 3 5 0 6 -7 1 -9 -5 -10 -10 -2 -18 15 -15 14 -27 -3 -27 -8 0
-17 -8 -19 -18 -4 -14 -5 -15 -6 -1 0 9 -10 19 -21 22 -11 3 -18 1 -14 -4 3
-5 -2 -6 -11 -3 -13 5 -13 9 -3 23 11 14 11 14 -2 5 -8 -6 -23 -10 -33 -9 -9
2 -15 -1 -11 -6 3 -5 10 -6 16 -3 7 4 8 2 4 -4 -4 -7 -16 -12 -27 -12 -10 0
-19 -5 -19 -11 0 -5 5 -7 12 -3 7 4 8 3 4 -4 -4 -7 -15 -12 -24 -12 -13 0 -13
-2 4 -15 18 -15 18 -15 0 -8 -16 5 -18 3 -14 -15 4 -14 2 -20 -5 -15 -7 4 -8
0 -4 -11 5 -13 1 -19 -13 -23 -12 -3 -17 -10 -13 -17 11 -17 12 -37 3 -31 -5
3 -11 1 -15 -5 -4 -6 -10 -8 -14 -6 -4 3 -8 -1 -8 -9 0 -8 4 -12 9 -9 4 3 8 0
8 -5 0 -6 -10 -11 -22 -12 -13 0 -18 -3 -11 -5 13 -6 7 -53 -8 -69 -7 -7 -8
-3 -3 10 8 21 6 20 -14 -7 -10 -12 -10 -18 -1 -24 8 -5 9 -3 4 6 -5 9 -4 11 4
6 8 -6 9 -12 2 -20 -6 -7 -7 -17 -3 -22 4 -4 -1 -2 -11 5 -15 12 -17 12 -11
-4 5 -13 4 -16 -4 -11 -7 4 -12 2 -12 -3 0 -6 5 -11 10 -11 6 0 10 -5 10 -11
0 -5 -4 -7 -10 -4 -5 3 -10 1 -10 -5 0 -6 -6 -8 -12 -4 -7 4 -5 -2 5 -13 17
-20 17 -20 -5 -18 -18 2 -23 -3 -25 -23 -1 -18 1 -21 8 -11 5 8 9 9 9 3 0 -5
-7 -19 -16 -30 -8 -10 -12 -13 -8 -5 4 9 3 12 -4 7 -6 -3 -9 -15 -7 -26 2 -13
-2 -20 -11 -20 -8 0 -12 -5 -9 -10 4 -6 11 -7 17 -4 7 5 8 2 2 -7 -5 -8 -9
-17 -9 -21 0 -10 -15 -12 -23 -2 -4 4 -2 4 4 1 6 -3 11 0 11 8 0 11 -4 12 -13
4 -10 -8 -11 -16 -3 -30 7 -15 6 -19 -5 -19 -8 0 -18 -5 -22 -12 -5 -7 -3 -8
6 -3 8 5 11 3 8 -6 -3 -8 -11 -13 -17 -11 -7 1 -9 -2 -6 -8 4 -6 -1 -18 -11
-26 -18 -14 -18 -14 0 -7 18 6 18 5 2 -19 -9 -13 -13 -28 -9 -33 5 -4 2 -5 -4
-1 -8 4 -13 1 -13 -9 0 -10 -5 -14 -12 -9 -10 6 -10 4 0 -7 16 -18 15 -26 -4
-33 -15 -6 -15 -4 -3 11 13 16 12 17 -4 4 -12 -10 -14 -17 -7 -26 8 -9 6 -18
-7 -30 -18 -19 -28 -49 -12 -40 12 8 -2 -28 -15 -37 -7 -5 -4 -8 7 -8 9 0 17
-5 17 -11 0 -5 -4 -7 -10 -4 -5 3 -10 1 -10 -4 0 -10 14 -15 33 -12 4 0 7 -4
7 -10 0 -5 4 -7 10 -4 5 3 7 0 4 -8 -3 -8 0 -18 7 -23 8 -5 10 -3 5 7 -4 8 -1
6 8 -5 8 -10 22 -16 30 -13 9 4 15 1 13 -6 -1 -6 8 -13 21 -15 14 -2 20 -8 15
-15 -4 -7 1 -6 10 2 14 11 17 11 18 0 1 -8 1 -18 0 -22 -1 -5 3 -6 9 -2 6 3 8
12 4 18 -3 7 1 4 9 -6 8 -10 22 -17 30 -15 8 2 23 -8 34 -21 15 -18 20 -20 20
-8 0 9 -5 13 -10 10 -6 -3 -7 -1 -3 6 9 14 26 5 26 -14 0 -8 5 -17 12 -21 8
-5 9 -1 5 12 -6 15 -3 14 13 -5 11 -13 20 -20 20 -16 0 4 7 1 16 -6 18 -15 47
-22 39 -9 -3 5 -1 12 5 15 6 4 9 1 8 -7 -2 -7 3 -12 11 -10 12 3 12 1 0 -14
-13 -16 -12 -16 9 -5 21 11 27 8 23 -13 -1 -5 4 -4 12 3 12 9 18 8 30 -4 9 -8
21 -15 27 -15 6 0 8 -5 4 -12 -5 -9 -2 -9 9 1 11 9 17 10 17 2 0 -6 9 -11 20
-11 11 0 20 -5 20 -11 0 -8 5 -7 16 1 13 11 16 10 21 -8 5 -21 25 -28 62 -23
7 2 10 -2 6 -8 -3 -6 -1 -11 5 -11 6 0 8 -5 4 -12 -4 -7 -3 -8 4 -4 7 4 12 15
13 24 0 14 2 13 8 -3 5 -11 7 -23 5 -27 -2 -3 5 -4 16 -1 13 4 27 -1 36 -13 9
-11 13 -13 9 -6 -3 6 -1 12 4 12 6 0 11 -6 11 -14 0 -20 17 -29 26 -15 4 8 3
9 -4 5 -7 -4 -12 -3 -12 3 0 5 9 9 19 8 11 0 17 -5 15 -9 -5 -7 10 -12 29 -9
12 2 8 -17 -5 -23 -7 -3 -2 -3 11 0 17 4 21 3 16 -6 -6 -9 -3 -9 13 -1 28 15
37 14 22 -4 -10 -12 -8 -14 9 -10 12 2 21 -1 21 -8 0 -7 4 -6 10 3 8 12 10 12
10 -5 0 -17 2 -17 10 -5 8 13 10 13 10 -2 0 -12 5 -15 17 -11 11 4 14 3 9 -5
-5 -8 -2 -10 8 -6 10 4 16 1 16 -7 0 -11 3 -11 10 1 6 10 10 11 10 3 0 -7 7
-13 15 -13 8 0 15 -4 15 -8 0 -4 10 -8 22 -9 11 -1 25 -8 29 -14 12 -20 51
-19 44 0 -3 9 4 5 15 -9 16 -20 19 -21 13 -5 -6 18 -5 19 12 5 10 -8 16 -10
12 -3 -4 6 -3 14 3 18 5 3 10 1 10 -4 0 -6 5 -11 11 -11 5 0 8 4 5 9 -3 5 6
12 20 15 18 5 24 11 20 23 -6 14 -4 14 11 2 15 -12 16 -12 10 4 -6 15 2 21 24
19 3 -1 5 9 5 21 -1 12 4 22 11 22 6 0 15 3 19 7 3 4 -2 6 -13 4 -12 -3 -20 1
-20 9 0 7 6 11 14 8 7 -3 13 2 13 11 0 9 6 15 13 13 6 -1 11 4 9 12 -1 7 3 19
9 27 6 8 8 14 4 14 -4 0 -2 7 5 15 7 9 10 18 6 22 -3 3 -6 0 -6 -7 0 -7 -3
-10 -6 -7 -4 4 -1 13 6 22 7 8 9 15 5 15 -4 0 -2 7 5 15 6 8 9 19 5 25 -4 6
-3 10 2 9 4 -1 15 -1 23 0 13 1 13 2 0 11 -13 9 -13 10 0 11 8 1 18 1 22 0 4
0 5 5 2 13 -3 8 -1 17 4 20 6 3 8 15 5 26 -3 12 0 20 8 20 7 0 10 3 6 6 -3 4
2 14 11 23 10 9 12 12 5 7 -7 -5 -13 -5 -13 0 1 13 26 45 31 39 3 -2 11 5 18
17 9 15 10 18 0 12 -9 -5 -10 -2 -6 10 4 10 7 20 7 22 0 3 5 2 11 -2 8 -4 9 0
4 15 -4 13 -2 21 5 21 8 0 10 9 5 28 -6 26 -6 26 9 7 15 -19 15 -19 12 13 -3
28 -1 31 12 20 10 -9 13 -9 9 -1 -4 6 -3 13 3 15 15 5 21 48 7 49 -7 0 -1 5
12 10 20 8 22 11 10 26 -8 9 -9 14 -2 10 12 -8 37 49 27 65 -3 5 3 12 14 15
13 3 18 11 15 23 -3 10 0 21 6 24 5 4 7 14 4 24 -6 16 -6 16 11 0 9 -10 22
-18 27 -18 6 0 3 7 -5 16 -18 17 -21 28 -7 20 5 -4 11 -3 14 1 2 5 2 2 0 -6
-2 -9 3 -12 19 -8 12 4 28 1 35 -5 10 -8 13 -7 13 2 0 8 3 11 6 7 3 -3 3 -11
-1 -17 -5 -8 -10 -8 -20 0 -10 8 -15 8 -21 -1 -4 -8 -3 -9 4 -5 7 4 12 2 12
-4 0 -7 6 -10 14 -7 7 3 19 0 25 -6 9 -9 11 -8 6 4 -4 10 0 16 10 16 9 0 14
-6 11 -12 -2 -6 2 -12 10 -12 7 0 11 4 8 9 -3 4 0 8 5 8 6 0 11 -8 11 -17 0
-15 2 -16 10 -3 6 10 10 11 10 3 0 -7 9 -13 19 -13 11 0 22 -6 24 -12 4 -9 6
-8 7 2 0 10 6 6 16 -10 15 -24 15 -24 10 -2 -4 19 -2 21 10 11 7 -6 12 -15 9
-18 -2 -4 2 -8 10 -8 8 0 11 5 8 11 -3 6 0 5 8 -1 7 -7 24 -13 38 -13 21 0 23
-2 11 -10 -11 -7 -5 -9 20 -5 19 3 29 3 22 -1 -6 -3 -9 -10 -6 -16 4 -6 10 -5
15 3 8 12 10 12 18 0 7 -11 10 -10 14 5 4 15 5 15 6 3 0 -9 8 -19 16 -23 8 -3
14 -2 12 2 -1 4 3 7 8 7 6 0 8 -6 7 -15 -3 -12 -1 -13 9 -2 18 17 29 15 29 -5
0 -16 1 -16 13 1 12 16 14 16 33 -3 20 -18 23 -18 40 -3 16 15 16 15 6 1 -10
-14 -10 -18 4 -23 23 -9 26 -8 19 7 -4 6 0 5 7 -5 10 -12 19 -13 31 -7 9 6 17
6 17 2 0 -16 39 -33 46 -21 5 7 3 8 -6 3 -9 -6 -11 -4 -5 5 6 10 11 9 22 -5 7
-11 13 -13 13 -7 0 7 9 10 23 8 12 -3 26 -5 31 -5 5 -1 2 -9 -5 -18 -11 -15
-10 -14 9 1 20 17 26 15 23 -6 0 -3 16 -2 36 4 24 6 38 6 42 -1 4 -5 15 -8 26
-7 11 2 26 -1 33 -7 9 -7 19 -4 34 9 12 11 18 13 14 7 -4 -7 -4 -13 1 -14 4 0
16 -2 25 -4 12 -2 15 2 11 13 -4 10 -2 13 5 8 7 -4 12 -14 12 -22 0 -8 5 -12
10 -9 6 4 7 11 4 17 -5 7 -2 8 6 3 7 -4 16 -2 21 6 7 12 9 12 9 0 0 -11 3 -11
18 0 16 13 16 13 2 -5 -14 -18 -13 -18 10 -11 23 7 24 7 10 -10 -14 -17 -14
-17 7 -5 12 8 20 18 17 22 -3 4 2 5 10 2 9 -3 14 -9 11 -13 -2 -4 3 -8 11 -8
8 0 13 6 10 13 -3 8 0 11 9 7 8 -3 12 -10 8 -17 -3 -6 -1 -6 8 1 15 15 33 18
25 5 -3 -5 1 -9 9 -9 7 0 12 8 10 19 -2 10 0 16 6 13 5 -4 7 -10 5 -14 -3 -4
-1 -13 5 -21 7 -13 9 -12 9 1 0 9 6 19 13 21 19 8 38 -2 30 -15 -3 -7 3 -4 15
7 19 17 22 17 28 3 5 -13 9 -14 19 -4 7 7 10 16 7 21 -3 5 0 6 7 2 9 -6 9 -12
-1 -24 -12 -15 -11 -16 4 -4 10 8 23 10 30 6 19 -12 39 -14 32 -3 -3 5 -10 6
-16 3 -7 -4 -8 -2 -4 4 5 8 13 9 24 3 9 -5 26 -5 37 -1 11 4 26 5 34 2 10 -4
13 -1 8 12 -5 12 -3 15 6 9 22 -14 49 -14 41 -1 -5 10 -4 10 6 1 11 -10 16 -9
26 5 12 15 13 14 9 -8 -4 -23 -3 -23 9 -7 8 10 24 20 37 22 23 4 23 4 5 -10
-11 -8 -15 -15 -9 -15 6 0 16 7 23 15 15 18 44 21 34 3 -6 -10 -5 -10 7 -1 12
10 18 10 28 0 10 -9 11 -8 5 6 -4 12 -12 16 -23 12 -12 -5 -13 -3 -4 6 6 6 17
8 25 3 22 -14 40 -13 34 2 -6 15 15 15 26 -1 5 -6 8 -5 8 4 0 11 3 11 17 0 15
-12 16 -12 11 2 -5 13 -2 16 13 12 10 -3 17 -9 14 -13 -3 -5 -1 -11 4 -14 10
-7 9 13 -2 31 -4 6 -2 15 4 19 7 4 9 3 6 -3 -4 -6 4 -13 18 -15 13 -3 22 -2
20 2 -3 5 2 11 11 14 8 3 12 2 9 -4 -9 -15 28 2 41 18 7 10 16 12 25 6 21 -13
31 -12 60 8 20 13 29 14 38 5 10 -9 11 -8 6 6 -4 9 -3 17 1 18 5 0 17 2 27 4
9 2 17 -2 18 -8 0 -7 4 -3 8 7 4 11 17 21 30 23 15 2 20 -1 15 -9 -5 -7 -3 -8
5 -4 7 5 10 15 6 23 -4 13 -3 14 10 3 11 -9 15 -9 15 -1 0 8 8 10 21 6 13 -5
19 -3 15 3 -3 5 1 13 10 16 10 4 13 2 8 -6 -4 -7 8 -1 26 12 19 13 30 17 26 9
-4 -7 2 -3 14 11 14 16 20 19 16 8 -3 -10 -1 -20 5 -23 5 -4 8 -1 7 7 -2 7 2
12 9 11 8 -2 10 4 6 15 -6 14 -4 15 8 5 11 -9 19 -7 38 9 21 16 23 21 10 29
-10 8 -8 9 9 4 14 -4 22 -2 22 6 0 7 3 9 6 6 4 -4 1 -14 -7 -23 -13 -16 -12
-16 8 -5 15 7 20 17 17 29 -5 14 -4 14 4 2 6 -8 8 -18 5 -23 -3 -4 1 -7 8 -5
14 3 19 -3 19 -24 0 -9 -4 -8 -10 2 -6 9 -10 10 -10 3 0 -7 8 -17 18 -23 14
-9 13 -10 -8 -5 -14 4 -20 3 -15 -2 15 -12 17 -31 5 -53 -7 -13 -7 -21 2 -26
6 -4 8 -3 5 3 -4 6 1 17 11 24 15 12 16 12 5 -2 -10 -12 -10 -18 0 -29 9 -10
9 -11 0 -6 -19 11 -16 -5 5 -21 16 -14 16 -14 -3 -9 -16 5 -15 2 6 -17 15 -12
25 -30 24 -40 -2 -9 1 -15 6 -11 5 3 9 0 9 -6 0 -6 6 -8 13 -4 6 4 9 4 5 -1
-4 -4 -2 -15 5 -23 11 -13 9 -14 -13 -2 l-25 13 20 -24 c36 -42 43 -48 48 -43
3 3 3 -3 0 -15 -3 -14 0 -23 11 -27 15 -6 15 -8 -1 -20 -16 -12 -16 -13 7 -8
21 5 22 4 8 -6 -16 -10 -16 -13 3 -45 19 -32 30 -40 52 -36 5 1 6 -3 2 -9 -3
-6 -11 -8 -16 -5 -5 3 -6 -1 -3 -9 3 -9 11 -13 17 -9 6 4 8 0 4 -10 -3 -9 0
-23 8 -31 8 -8 15 -21 15 -29 0 -9 6 -18 13 -20 9 -4 8 -8 -3 -16 -13 -9 -13
-11 3 -11 9 0 17 5 17 12 0 6 3 8 6 5 4 -4 1 -14 -7 -24 -9 -11 -10 -14 -1 -9
7 4 12 1 12 -9 0 -10 5 -13 12 -9 7 4 8 3 4 -5 -4 -6 2 -23 13 -37 16 -20 18
-31 10 -45 -5 -11 -6 -19 -2 -18 21 4 43 -2 43 -11 0 -5 -7 -7 -16 -3 -12 5
-12 0 4 -28 10 -19 17 -41 15 -49 -2 -8 3 -4 12 10 l15 25 -6 -29 c-5 -21 -4
-27 5 -22 6 4 11 4 10 -1 -4 -25 2 -43 13 -37 8 5 9 2 5 -9 -3 -9 -1 -19 5
-23 7 -4 8 -3 4 4 -4 7 -2 12 3 12 6 0 11 -6 11 -14 0 -8 5 -18 12 -22 7 -5 8
-3 3 7 -8 12 -6 12 8 0 10 -8 30 -15 45 -17 15 -1 31 -2 36 -3 5 -1 2 -9 -5
-19 -12 -15 -12 -16 2 -5 9 7 19 10 23 6 4 -4 4 1 0 11 -6 15 -4 17 7 10 20
-12 40 -14 33 -3 -3 5 -11 6 -17 3 -7 -4 -9 -4 -5 1 5 5 24 9 43 10 21 1 41 9
51 21 8 10 13 13 9 7 -7 -15 4 -17 25 -3 10 6 11 10 3 10 -7 0 -13 5 -13 10 0
7 7 7 21 -1 17 -9 20 -8 14 2 -6 9 -4 11 7 6 9 -3 24 1 35 9 10 9 12 13 3 9
-8 -4 -6 1 4 9 15 12 23 13 33 4 7 -6 16 -8 20 -4 3 3 1 6 -6 6 -7 0 -10 4 -6
9 3 6 15 8 26 6 11 -2 22 2 26 11 4 12 8 12 21 2 13 -11 14 -10 4 7 -9 17 -7
21 8 21 10 0 16 -5 14 -11 -3 -5 2 -1 11 10 14 17 17 18 25 5 8 -12 10 -10 11
10 0 14 3 19 6 13 3 -10 8 -10 18 1 8 7 25 12 39 11 17 -2 23 1 20 10 -4 8 3
11 21 9 16 -1 28 3 32 12 3 8 10 11 16 7 6 -4 8 0 4 11 -6 14 -4 15 15 5 17
-9 20 -9 15 3 -3 8 1 15 9 15 7 0 11 -4 8 -9 -4 -5 3 -4 15 4 12 7 21 16 21
20 0 5 7 8 15 8 9 0 18 7 21 15 6 14 8 13 20 -2 12 -17 13 -16 14 7 0 14 4 20
8 15 6 -10 20 -11 40 -5 4 1 11 2 16 1 5 -1 3 6 -5 15 -8 10 -9 15 -2 11 6 -4
14 -3 18 3 4 7 12 7 26 0 18 -10 23 -6 20 14 -1 5 5 6 13 3 8 -3 17 1 20 9 3
8 11 14 18 14 9 0 9 -3 0 -12 -7 -7 -12 -17 -12 -22 0 -6 7 0 16 12 8 12 12
28 8 35 -6 9 -4 9 8 -1 13 -10 17 -10 22 4 5 14 9 14 23 3 10 -8 14 -9 10 -2
-4 6 -3 14 3 18 5 3 10 2 10 -2 0 -5 8 -9 19 -9 13 0 17 6 13 21 -4 20 -4 20
12 0 15 -19 16 -19 9 -1 -5 15 -3 18 10 13 12 -4 17 -1 17 11 0 15 2 15 10 2
9 -13 10 -13 11 0 1 8 1 19 0 24 -1 5 4 4 11 -2 15 -12 43 -11 55 3 4 4 2 5
-4 1 -7 -4 -13 -2 -13 5 0 6 8 9 20 6 12 -3 18 -1 14 5 -4 6 2 8 17 3 17 -4
20 -3 10 3 -15 11 3 27 19 17 6 -4 10 -3 9 2 -4 26 2 44 14 37 9 -6 9 -4 1 7
-5 8 -9 24 -8 37 0 12 -4 22 -10 22 -6 0 -3 5 7 11 9 5 17 15 17 21 0 7 -6 6
-15 -2 -13 -11 -14 -10 -9 4 4 10 -2 23 -17 35 -19 16 -21 21 -11 34 10 12 10
17 1 23 -8 4 -9 3 -5 -4 4 -7 2 -10 -7 -6 -7 2 -14 11 -14 19 0 8 4 12 9 9 4
-3 8 0 8 5 0 6 -7 11 -15 11 -8 0 -15 5 -15 10 0 17 -3 25 -17 39 -11 11 -11
16 -1 29 8 9 8 13 2 9 -7 -4 -17 0 -24 8 -11 13 -10 14 5 9 13 -5 16 -4 11 4
-4 7 -13 12 -21 12 -8 0 -11 7 -8 20 3 12 0 20 -7 20 -8 0 -10 8 -7 21 4 15 2
18 -7 10 -9 -8 -13 -7 -13 4 0 8 4 15 9 15 5 0 3 6 -4 14 -10 10 -15 11 -21 2
-5 -6 -6 -2 -2 10 3 13 0 28 -10 38 -9 8 -15 18 -14 21 4 16 -12 65 -27 79
-13 14 -14 19 -3 34 10 12 7 11 -10 -3 l-24 -20 13 24 c7 15 8 21 1 17 -7 -4
-11 1 -11 13 0 12 -6 21 -12 21 -9 0 -8 4 2 10 13 8 13 10 -2 10 -9 0 -20 5
-24 12 -5 8 -2 9 10 5 16 -6 16 -5 -1 23 -9 17 -21 30 -26 30 -5 0 -4 6 2 14
9 11 8 15 -6 21 -10 5 -22 7 -26 6 -5 -1 -6 3 -2 9 3 6 11 8 16 5 5 -4 9 -1 9
6 0 7 -8 9 -21 6 -19 -5 -20 -4 -5 12 15 16 15 19 -4 36 -11 10 -17 22 -13 28
4 6 1 7 -6 2 -9 -5 -7 -13 10 -31 12 -13 19 -24 15 -24 -16 0 -43 44 -40 65 2
18 -2 22 -19 17 -13 -3 -18 -1 -13 6 4 8 2 10 -8 6 -8 -3 -25 2 -39 10 -20 14
-24 14 -24 1 0 -8 4 -12 9 -9 4 3 15 -2 24 -10 8 -9 11 -16 5 -16 -5 0 -13 5
-16 10 -4 6 -11 8 -16 4 -5 -3 -6 -10 -3 -16 4 -7 2 -8 -5 -4 -6 4 -9 12 -6
17 4 5 -1 12 -9 15 -9 3 -16 10 -16 16 0 5 6 6 13 2 9 -6 9 -4 0 7 -16 16 -17
33 -1 23 7 -4 8 -3 4 5 -6 9 -11 9 -21 1 -10 -9 -15 -6 -21 12 -4 13 -7 27 -6
31 1 4 -6 3 -17 -3 -28 -14 -38 -12 -16 3 13 10 15 16 6 21 -6 4 -17 3 -24 -3
-8 -6 -18 -6 -27 -1 -10 7 -11 10 -2 10 6 0 12 5 12 11 0 5 -5 7 -12 3 -8 -5
-9 -2 -5 9 4 12 1 17 -11 18 -11 1 -8 4 8 9 l25 8 -25 2 c-14 1 -28 2 -32 1
-4 0 0 12 7 26 13 24 12 29 -2 45 -9 10 -13 25 -9 34 5 14 4 15 -9 4 -17 -15
-19 -7 -5 21 14 24 -5 26 -19 2 -6 -10 -10 -13 -10 -8 0 6 6 18 14 28 7 11 11
26 8 35 -3 12 -2 13 4 5 6 -8 14 -9 23 -3 8 6 10 10 4 10 -7 0 -15 7 -18 16
-3 8 -2 12 3 9 5 -3 12 -1 16 5 4 6 10 8 14 6 4 -3 8 7 9 22 1 15 7 29 12 30
6 2 10 8 10 13 0 6 -4 7 -10 4 -5 -3 -10 -1 -10 4 0 6 10 11 23 11 21 1 22 1
3 15 -22 17 -14 20 13 6 13 -7 18 -6 18 4 0 8 -4 12 -9 9 -4 -3 -8 0 -8 5 0 6
5 11 11 11 5 0 7 5 4 10 -3 5 2 10 12 10 14 0 15 2 5 9 -17 10 -15 21 5 43 8
9 12 23 8 30 -6 10 -5 11 6 1 13 -13 38 -19 26 -7 -3 4 -2 16 4 28 10 20 10
20 -5 2 -9 -11 -16 -16 -16 -10 1 12 30 50 35 44 2 -3 7 -2 11 3 4 4 -1 7 -12
7 -16 0 -15 2 6 13 15 8 24 20 22 31 -2 13 1 16 10 10 9 -5 8 -2 -2 11 -9 11
-10 16 -2 11 6 -4 12 -3 12 1 0 5 -6 15 -12 23 -11 12 -10 12 5 1 13 -10 17
-11 17 -1 0 10 4 9 18 -1 15 -12 15 -11 -1 8 -14 16 -15 23 -6 29 8 5 10 3 4
-6 -5 -9 -4 -11 4 -6 9 6 9 11 -1 24 -7 9 -8 13 -3 10 6 -4 17 2 24 14 9 15
10 18 0 13 -7 -5 -10 -4 -5 3 3 5 0 13 -6 16 -7 3 -4 4 7 1 17 -4 20 0 20 21
-1 16 8 36 22 50 13 13 23 29 22 36 0 10 -2 10 -6 1 -5 -15 -23 -17 -23 -4 0
5 9 13 21 16 19 6 20 7 2 20 -17 13 -17 13 2 12 11 -1 24 -6 28 -12 5 -6 7 -4
4 5 -2 8 -9 14 -14 13 -5 -1 -10 4 -10 12 0 8 4 12 9 9 4 -3 8 0 8 6 0 6 5 8
12 4 7 -4 8 -3 4 5 -4 6 -11 9 -15 7 -4 -3 -8 2 -8 11 0 9 9 18 19 21 10 2 15
8 12 13 -3 5 -10 6 -16 3 -7 -4 -8 -2 -4 5 4 6 12 8 18 5 6 -4 9 -1 6 7 -3 8
2 20 9 28 8 7 11 16 8 19 -3 4 -10 0 -15 -8 -6 -10 -10 -11 -10 -3 0 7 9 17
21 23 17 10 18 14 7 28 -11 13 -11 15 3 10 10 -4 16 -1 16 8 0 9 -6 13 -16 9
-9 -3 -5 3 8 13 17 14 20 21 11 27 -10 6 -9 10 2 16 10 5 14 23 14 54 -1 33 3
45 13 45 11 0 9 4 -5 15 -12 10 -13 13 -3 10 12 -4 15 2 15 30 0 19 -5 35 -10
36 -6 0 -2 4 8 8 21 8 31 41 13 42 -7 0 -3 4 8 9 15 7 16 9 4 9 -20 1 -20 38
1 51 12 8 12 10 -5 11 -17 1 -16 2 5 9 20 6 21 8 6 9 -20 1 -20 1 0 17 10 8
14 13 8 10 -7 -3 -14 3 -17 15 -5 17 -3 18 9 8 12 -10 13 -9 8 6 -6 14 -4 16
6 10 9 -5 11 -4 6 4 -4 6 -12 9 -17 6 -5 -4 -9 -2 -9 4 0 5 6 12 13 14 8 4 8
6 -2 6 -11 1 -10 4 4 14 14 11 15 16 5 22 -9 6 -11 4 -5 -5 5 -9 4 -11 -4 -6
-8 5 -7 13 3 28 11 15 12 26 5 40 -7 13 -6 18 3 19 7 0 4 4 -7 9 -18 8 -18 9
5 10 23 1 23 2 5 10 -11 5 -15 9 -8 9 6 1 11 10 10 20 0 11 -5 17 -9 15 -4 -3
-8 0 -8 5 0 6 7 11 16 11 8 0 12 5 9 10 -4 6 -11 8 -16 5 -5 -3 -6 1 -2 10 3
10 0 21 -8 26 -10 6 -8 9 9 9 13 0 20 4 17 10 -4 6 -10 8 -15 5 -5 -3 -12 0
-16 6 -4 7 -3 9 4 5 17 -10 20 27 3 47 -13 16 -13 17 1 12 9 -4 19 -1 24 6 4
7 3 10 -4 5 -6 -3 -14 -1 -19 6 -10 17 -12 59 -3 53 4 -3 10 4 13 14 3 14 1
18 -10 14 -11 -4 -14 -2 -11 8 3 8 11 13 17 11 9 -2 9 3 1 18 -6 11 -7 20 -3
20 4 0 0 5 -9 11 -9 5 -15 16 -12 24 4 8 11 12 18 8 6 -4 5 1 -3 10 -7 10 -12
31 -9 51 3 30 2 33 -11 23 -12 -10 -13 -9 -3 10 15 27 16 66 2 58 -6 -4 -10
10 -10 34 0 22 -4 43 -10 46 -13 8 -13 25 1 25 5 0 7 -5 3 -12 -5 -7 -3 -8 6
-3 10 6 9 11 -6 22 -10 8 -20 18 -20 23 -1 6 -2 11 -4 13 -7 8 -5 45 2 41 5
-4 7 -13 4 -21 -4 -9 -2 -11 6 -7 7 5 8 3 3 -6 -5 -9 -4 -11 3 -6 15 9 0 41
-32 69 -12 10 -16 16 -10 13 7 -3 14 2 16 12 6 23 -1 43 -14 36 -6 -4 -8 2 -4
17 7 23 7 23 -8 5 -18 -23 -21 -14 -6 15 7 12 7 19 1 19 -6 0 -8 7 -5 15 4 8
2 15 -4 15 -6 0 -8 9 -5 20 3 11 0 20 -6 20 -6 0 -11 9 -11 20 0 11 6 20 13
20 6 0 -2 9 -19 19 -18 11 -35 25 -40 33 -6 10 -5 11 8 1 8 -7 19 -9 23 -5 5
4 5 1 0 -7 -6 -10 -4 -12 5 -6 10 6 10 11 -3 20 -9 7 -14 15 -10 18 3 4 -2 7
-12 7 -17 0 -17 1 -2 18 14 15 15 19 2 19 -8 0 -11 -5 -8 -10 3 -6 1 -7 -5 -3
-6 4 -9 13 -6 20 3 7 -1 20 -9 27 -15 16 -17 21 -17 49 0 11 -5 20 -11 20 -5
0 -7 -4 -4 -10 3 -6 -1 -7 -10 -3 -12 4 -13 8 -5 13 7 4 10 13 6 19 -5 7 -1 8
10 4 12 -4 15 -3 10 5 -4 7 -17 12 -29 13 -21 0 -21 1 -2 9 19 8 19 9 1 9 -15
1 -16 4 -6 16 10 12 8 14 -8 10 -16 -3 -18 1 -14 22 3 18 1 24 -7 19 -6 -4
-11 -1 -11 9 0 10 5 13 12 9 7 -4 8 -3 4 4 -4 7 -14 12 -22 12 -8 0 -14 10
-14 24 0 13 -5 26 -10 28 -6 2 -12 13 -12 24 -2 16 -7 20 -23 17 -16 -4 -17
-3 -5 6 13 9 12 13 -4 28 -19 17 -19 17 -5 -2 13 -18 13 -19 -3 -6 -14 10 -15
18 -7 32 7 15 7 19 -3 17 -7 -2 -12 3 -10 10 2 10 -2 10 -20 1 -21 -11 -22
-11 -9 4 10 13 10 17 1 17 -9 0 -10 3 -1 14 9 11 6 13 -13 11 -18 -2 -23 1
-19 11 3 8 0 14 -6 14 -6 0 -11 5 -11 11 0 5 4 8 9 4 5 -3 13 -1 16 5 4 6 3
10 -2 9 -23 -4 -42 3 -47 17 -5 14 -4 15 9 4 9 -7 18 -11 20 -8 3 3 -6 11 -20
18 -14 7 -25 22 -25 32 0 12 -4 16 -11 12 -8 -4 -9 1 -4 17 7 23 7 24 -9 4
-15 -20 -15 -20 -11 3 3 18 0 22 -10 18 -8 -3 -15 -1 -15 5 0 6 -5 7 -12 3 -7
-4 -8 -3 -4 5 4 6 11 9 15 7 4 -3 8 1 8 9 0 7 -8 12 -18 10 -13 -3 -16 1 -12
13 6 15 5 16 -12 2 -17 -14 -18 -14 -6 9 8 15 9 21 2 17 -6 -4 -14 0 -17 8 -3
9 -10 14 -14 11 -5 -3 -7 6 -6 20 3 21 1 23 -16 14 -18 -10 -19 -9 -7 13 11
21 11 22 -4 9 -15 -12 -17 -11 -17 10 0 20 -2 21 -11 9 -8 -12 -9 -12 -7 5 4
32 -10 49 -30 33 -12 -10 -14 -10 -8 0 4 7 2 12 -6 12 -9 0 -9 3 2 10 12 8 11
10 -7 10 -13 0 -23 -5 -23 -12 0 -6 -3 -8 -6 -5 -4 4 -1 13 6 22 10 12 10 15
0 15 -7 0 -10 8 -7 19 3 12 0 18 -7 15 -6 -2 -18 1 -26 6 -13 9 -13 11 0 21
12 8 10 9 -7 4 -22 -6 -29 6 -24 38 1 5 -3 6 -9 2 -5 -3 -10 -1 -10 4 0 6 -7
11 -16 11 -8 0 -12 5 -9 10 4 6 1 17 -5 25 -6 8 -8 20 -4 27 5 10 4 10 -6 1
-10 -9 -10 -16 -2 -26 9 -10 8 -14 -3 -14 -7 0 -14 3 -13 6 2 25 -4 41 -14 35
-7 -4 -8 -3 -4 5 4 6 12 8 18 5 7 -5 8 -2 4 5 -5 7 -18 17 -30 22 -21 9 -21
10 2 5 12 -2 22 0 22 5 0 8 -15 13 -33 10 -4 -1 -3 8 3 19 6 12 7 20 1 20 -5
0 -12 9 -16 19 -3 11 -21 26 -40 36 -19 9 -35 22 -35 30 0 8 -5 15 -11 15 -5
0 -7 5 -3 12 4 7 3 8 -4 4 -6 -4 -9 -14 -6 -24 2 -9 -1 -7 -7 6 -13 24 -29 29
-30 10 0 -7 -7 1 -14 17 -11 24 -14 26 -15 10 -1 -18 -2 -18 -10 3 -5 12 -12
22 -14 22 -3 0 -3 -6 0 -14 3 -8 0 -17 -7 -22 -8 -4 -10 -3 -5 4 4 7 2 13 -3
13 -6 1 -17 2 -23 3 -7 1 -16 -3 -20 -9 -5 -6 -8 -5 -8 3 0 7 -5 10 -12 6 -7
-5 -8 -3 -3 6 6 10 1 12 -19 8 -16 -3 -33 0 -42 9 -8 8 -14 12 -14 8 0 -3 -9
-1 -20 5 -16 9 -18 8 -14 -5 4 -8 1 -15 -5 -15 -6 0 -10 3 -10 8 4 24 -3 34
-21 29 -11 -3 -20 -1 -20 5 0 5 -5 6 -12 2 -7 -5 -8 -3 -3 6 6 10 4 12 -10 6
-16 -6 -16 -4 -4 10 13 16 12 16 -11 4 -23 -12 -24 -12 -11 4 12 14 12 16 -4
10 -13 -5 -16 -4 -11 4 4 7 1 12 -9 12 -10 0 -13 -5 -9 -12 5 -7 3 -8 -5 -4
-7 5 -10 14 -7 22 5 12 2 12 -16 3 -17 -9 -20 -9 -15 3 4 11 -2 15 -21 14 -21
-1 -26 3 -24 17 3 16 0 17 -19 7 -19 -11 -21 -10 -16 3 4 11 2 14 -9 10 -8 -3
-14 -2 -13 3 3 21 -2 26 -15 15 -9 -8 -16 -8 -20 -2 -4 6 -14 7 -24 4 -15 -6
-15 -5 -3 10 8 10 11 20 7 24 -3 3 -6 2 -6 -3 0 -6 -13 -10 -29 -9 -18 0 -27
4 -24 12 3 8 -3 10 -19 6 -19 -5 -21 -3 -10 8 19 20 14 33 -5 13 -16 -15 -17
-15 -24 2 -6 18 -7 18 -11 -1 -5 -16 -6 -17 -7 -3 -1 11 -9 18 -23 18 -43 0
-57 3 -51 13 4 7 -1 8 -12 3 -14 -5 -15 -4 -7 7 8 10 7 13 -8 14 -14 1 -17 -3
-12 -15 5 -15 4 -15 -11 -2 -41 38 -44 39 -57 27 -9 -9 -11 -8 -8 7 2 12 -3
20 -15 21 -9 2 -15 -1 -11 -6 3 -5 1 -9 -5 -9 -5 0 -12 8 -14 18 -4 14 -5 14
-6 -3 -1 -18 -2 -18 -17 3 -13 18 -19 21 -30 11 -11 -9 -14 -8 -14 2 0 11 -2
11 -10 -1 -8 -13 -10 -12 -10 4 0 16 -2 17 -17 5 -14 -12 -16 -12 -9 1 4 8 1
7 -7 -3 -13 -16 -15 -16 -21 -2 -3 9 -2 14 2 11 5 -3 9 1 9 9 0 19 -2 19 -21
-1 -9 -8 -16 -11 -16 -5 0 6 -7 11 -16 11 -9 0 -12 -5 -8 -12 6 -10 4 -10 -7
0 -7 6 -21 12 -32 12 -10 0 -15 5 -12 10 4 6 -10 10 -34 10 -26 0 -41 5 -41
13 0 7 -3 8 -8 2 -4 -5 -20 -11 -37 -12 -16 0 -24 1 -17 4 23 9 12 18 -23 18
-19 0 -35 -4 -36 -10 0 -5 -4 -1 -9 10 -5 12 -9 14 -9 6 -1 -11 -4 -10 -14 4
-11 14 -16 15 -22 5 -6 -9 -4 -11 6 -5 11 6 11 5 2 -5 -9 -10 -16 -8 -34 9
-15 14 -26 18 -33 11 -12 -12 -39 -14 -32 -2 3 5 -1 9 -9 9 -8 0 -12 -4 -9 -9
6 -10 -10 -11 -20 -1 -12 12 -48 10 -53 -3 -4 -10 -10 -8 -25 6 -18 16 -54 18
-44 1 6 -9 -87 -6 -103 3 -8 5 -17 3 -22 -5 -7 -11 -9 -11 -9 -1 0 7 -4 10
-10 7 -5 -3 -10 -1 -10 5 0 6 -7 4 -16 -5 -12 -11 -20 -13 -27 -6 -13 13 -30
15 -23 3 6 -11 -25 -9 -43 2 -8 5 -17 3 -22 -5 -5 -8 -9 -9 -9 -3 0 6 -7 11
-15 11 -8 0 -15 -5 -15 -11 0 -5 -7 -1 -16 10 -8 10 -13 13 -9 7z m560 -23 c3
-5 1 -10 -4 -10 -6 0 -11 5 -11 10 0 6 2 10 4 10 3 0 8 -4 11 -10z m503 -115
c-3 -3 -9 2 -12 12 -6 14 -5 15 5 6 7 -7 10 -15 7 -18z m-2058 -139 c0 -3 -4
-8 -10 -11 -5 -3 -10 -1 -10 4 0 6 5 11 10 11 6 0 10 -2 10 -4z m3171 -338
c15 -28 5 -21 -21 15 -15 20 -17 27 -6 18 9 -8 22 -23 27 -33z m109 -193 c7
-9 8 -15 2 -15 -5 0 -12 7 -16 15 -3 8 -4 15 -2 15 2 0 9 -7 16 -15z m155
-154 c3 -5 2 -12 -3 -15 -5 -3 -9 1 -9 9 0 17 3 19 12 6z m-4520 -131 c-3 -5
-1 -10 6 -10 7 0 10 -3 6 -6 -9 -9 -28 6 -22 17 4 5 8 9 11 9 3 0 2 -4 -1 -10z
m-325 -510 c0 -5 -5 -10 -11 -10 -5 0 -7 5 -4 10 3 6 8 10 11 10 2 0 4 -4 4
-10z m5558 -1005 c-3 -3 -9 2 -12 12 -6 14 -5 15 5 6 7 -7 10 -15 7 -18z m-61
-888 c0 -8 -6 -14 -14 -14 -9 0 -10 4 -2 14 6 7 12 13 14 13 1 0 2 -6 2 -13z
m-32 -125 c-3 -3 -11 0 -18 7 -9 10 -8 11 6 5 10 -3 15 -9 12 -12z m-370 -832
c-3 -5 -12 -10 -18 -10 -7 0 -6 4 3 10 19 12 23 12 15 0z m-5 -195 c0 -12 -19
-12 -23 0 -4 9 -1 12 9 8 7 -3 14 -7 14 -8z m-4894 -207 c4 -6 3 -8 -4 -4 -6
3 -13 2 -17 -4 -3 -5 -11 -10 -18 -10 -6 0 -2 7 9 15 23 18 21 17 30 3z m5027
-13 c-3 -9 -8 -14 -10 -11 -3 3 -2 9 2 15 9 16 15 13 8 -4z m228 -232 c13 -16
12 -17 -3 -4 -17 13 -22 21 -14 21 2 0 10 -8 17 -17z m87 -198 c-3 -3 -9 2
-12 12 -6 14 -5 15 5 6 7 -7 10 -15 7 -18z m-1648 -149 c0 -3 -4 -8 -10 -11
-5 -3 -10 -1 -10 4 0 6 5 11 10 11 6 0 10 -2 10 -4z m-390 -151 c-7 -9 -15
-13 -19 -10 -3 3 1 10 9 15 21 14 24 12 10 -5z m-1410 -75 c0 -5 -2 -10 -4
-10 -3 0 -8 5 -11 10 -3 6 -1 10 4 10 6 0 11 -4 11 -10z m229 -23 c8 -10 7
-14 -2 -14 -8 0 -14 6 -14 14 0 7 1 13 2 13 2 0 8 -6 14 -13z m-1064 -28 c-4
-5 -12 -9 -18 -8 -9 0 -8 2 1 6 6 2 9 10 6 15 -4 7 -2 8 5 4 6 -4 9 -12 6 -17z
m1110 11 c3 -5 1 -10 -4 -10 -6 0 -11 5 -11 10 0 6 2 10 4 10 3 0 8 -4 11 -10z
m545 0 c0 -5 -2 -10 -4 -10 -3 0 -8 5 -11 10 -3 6 -1 10 4 10 6 0 11 -4 11
-10z m1235 -140 c3 -5 2 -10 -4 -10 -5 0 -13 5 -16 10 -3 6 -2 10 4 10 5 0 13
-4 16 -10z m62 -115 c0 -8 -4 -12 -9 -9 -5 3 -6 10 -3 15 9 13 12 11 12 -6z
m-3110 -75 c-6 -11 -16 -20 -21 -20 -5 0 -2 8 7 18 10 10 14 22 10 27 -5 4 -2
5 4 1 10 -5 10 -11 0 -26z m-1120 -35 c0 -8 -4 -12 -9 -9 -5 3 -6 10 -3 15 9
13 12 11 12 -6z m1043 -140 c-7 -8 -9 -19 -5 -24 4 -7 0 -8 -10 -5 -14 6 -14
8 0 24 8 9 12 20 8 25 -5 4 -2 5 5 1 10 -6 10 -11 2 -21z"/>
<path d="M4670 7145 c0 -7 30 -13 34 -7 3 4 -4 9 -15 9 -10 1 -19 0 -19 -2z"/>
<path d="M4986 7058 c3 -5 10 -6 15 -3 13 9 11 12 -6 12 -8 0 -12 -4 -9 -9z"/>
<path d="M5070 7025 c0 -7 30 -13 34 -7 3 4 -4 9 -15 9 -10 1 -19 0 -19 -2z"/>
<path d="M2507 6803 c-4 -3 -7 -11 -7 -17 0 -6 5 -5 12 2 6 6 9 14 7 17 -3 3
-9 2 -12 -2z"/>
<path d="M2377 6763 c-10 -9 -9 -23 1 -23 5 0 9 7 9 15 0 17 -1 18 -10 8z"/>
<path d="M5735 6749 c-3 -4 2 -6 10 -5 21 3 28 13 10 13 -9 0 -18 -4 -20 -8z"/>
<path d="M5927 6677 c-3 -8 1 -14 8 -14 7 0 11 6 8 14 -3 7 -6 13 -8 13 -2 0
-5 -6 -8 -13z"/>
<path d="M1857 6295 c3 -8 9 -12 14 -9 12 7 11 11 -5 17 -10 4 -13 1 -9 -8z"/>
<path d="M1740 6160 c-9 -6 -10 -10 -3 -10 6 0 15 5 18 10 8 12 4 12 -15 0z"/>
<path d="M1520 5849 c0 -5 5 -7 10 -4 6 3 10 8 10 11 0 2 -4 4 -10 4 -5 0 -10
-5 -10 -11z"/>
<path d="M1100 4579 c0 -5 5 -7 10 -4 6 3 10 8 10 11 0 2 -4 4 -10 4 -5 0 -10
-5 -10 -11z"/>
<path d="M1098 4213 c7 -3 16 -2 19 1 4 3 -2 6 -13 5 -11 0 -14 -3 -6 -6z"/>
<path d="M1100 4100 c-9 -6 -10 -10 -3 -10 6 0 15 5 18 10 8 12 4 12 -15 0z"/>
<path d="M6940 3980 c0 -6 7 -10 15 -10 8 0 15 2 15 4 0 2 -7 6 -15 10 -8 3
-15 1 -15 -4z"/>
<path d="M6775 3300 c3 -5 8 -10 11 -10 2 0 4 5 4 10 0 6 -5 10 -11 10 -5 0
-7 -4 -4 -10z"/>
<path d="M6590 2945 c-7 -9 -8 -15 -2 -15 5 0 12 7 16 15 3 8 4 15 2 15 -2 0
-9 -7 -16 -15z"/>
<path d="M6460 2676 c0 -2 7 -7 16 -10 8 -3 12 -2 9 4 -6 10 -25 14 -25 6z"/>
<path d="M1660 2460 c-9 -6 -10 -10 -3 -10 6 0 15 5 18 10 8 12 4 12 -15 0z"/>
<path d="M1300 2099 c0 -5 5 -7 10 -4 6 3 10 8 10 11 0 2 -4 4 -10 4 -5 0 -10
-5 -10 -11z"/>
<path d="M2744 1689 c-3 -6 1 -17 10 -25 9 -8 11 -9 6 -2 -14 16 -13 31 2 22
7 -4 8 -3 4 4 -9 15 -13 15 -22 1z"/>
<path d="M4830 1589 c0 -5 5 -7 10 -4 6 3 10 8 10 11 0 2 -4 4 -10 4 -5 0 -10
-5 -10 -11z"/>
<path d="M3313 1565 c0 -8 4 -15 9 -15 4 0 8 4 8 9 0 6 -4 12 -8 15 -5 3 -9
-1 -9 -9z"/>
<path d="M7120 1521 c0 -10 19 -25 25 -20 1 2 -3 10 -11 17 -8 7 -14 8 -14 3z"/>
<path d="M3890 1481 c0 -6 4 -13 10 -16 6 -3 7 1 4 9 -7 18 -14 21 -14 7z"/>
<path d="M1000 1440 c-9 -6 -10 -10 -3 -10 6 0 15 5 18 10 8 12 4 12 -15 0z"/>
<path d="M5475 1431 c-3 -5 -2 -12 3 -15 5 -3 9 1 9 9 0 17 -3 19 -12 6z"/>
<path d="M7165 1420 c-3 -5 -1 -10 4 -10 6 0 11 5 11 10 0 6 -2 10 -4 10 -3 0
-8 -4 -11 -10z"/>
<path d="M2463 1090 c-10 -15 -10 -21 0 -26 6 -4 9 -3 4 1 -4 5 0 17 10 27 9
10 12 18 7 18 -5 0 -15 -9 -21 -20z"/>
<path d="M6615 1089 c-4 -6 -5 -12 -2 -15 2 -3 7 2 10 11 7 17 1 20 -8 4z"/>
<path d="M1470 1080 c0 -5 5 -10 11 -10 5 0 7 5 4 10 -3 6 -8 10 -11 10 -2 0
-4 -4 -4 -10z"/>
<path d="M6376 982 c-3 -5 1 -9 9 -9 8 0 12 4 9 9 -3 4 -7 8 -9 8 -2 0 -6 -4
-9 -8z"/>
<path d="M5876 788 c3 -5 10 -6 15 -3 13 9 11 12 -6 12 -8 0 -12 -4 -9 -9z"/>
</g>
</svg>
